<svg xmlns="http://www.w3.org/2000/svg" width="196.576" height="26.32" viewBox="0 0 196.576 26.32"><defs><style>.a{fill:#ff4d0f;}</style></defs><g transform="translate(116.039 -1238.271)"><rect class="a" width="5.412" height="25.346" transform="translate(-90.041 1238.872)"/><path class="a" d="M-97.494,1242.894a13.262,13.262,0,0,0-4.734-3.08,19.406,19.406,0,0,0-7.2-1.173h-6.614v4.847l6.721-.016a12.286,12.286,0,0,1,3.991.617,9.384,9.384,0,0,1,3.014,1.663,7.018,7.018,0,0,1,1.866,2.451,7.7,7.7,0,0,1,.664,3.228,7.6,7.6,0,0,1-.724,3.4,7.206,7.206,0,0,1-1.992,2.451,9.436,9.436,0,0,1-3.014,1.56,12.39,12.39,0,0,1-3.7.551h-1.365v-15.1l-5.407,5.775v9.323h-.057v4.827h6.938a18.409,18.409,0,0,0,6.832-1.134,13.274,13.274,0,0,0,4.658-3.01,11.468,11.468,0,0,0,2.6-4.2,13.593,13.593,0,0,0,.78-4.444,14.205,14.205,0,0,0-.712-4.3A11.18,11.18,0,0,0-97.494,1242.894Z"/><path class="a" d="M-13.124,1239.088h-3.412L-29.6,1264.523h5.925l2.176-4.234,6.691-.015,2.308-4.921-6.5.06,4.188-8.336,3.527,6.982,5.339,10.464H0Z"/><path class="a" d="M-54.539,1249.888h-6.087l-3.86,4.123h4.58l-.03.023v4.681l-.21.071c-.485.165-.985.307-1.482.423a15.269,15.269,0,0,1-3.324.315,12.22,12.22,0,0,1-4.411-.71,8.827,8.827,0,0,1-2.96-1.824,7.093,7.093,0,0,1-1.7-2.533,8.329,8.329,0,0,1-.574-3.025,7.712,7.712,0,0,1,.662-3.211,7.863,7.863,0,0,1,1.861-2.559,8.644,8.644,0,0,1,2.86-1.7,10.688,10.688,0,0,1,3.715-.619,20.954,20.954,0,0,1,3.711.328,15.284,15.284,0,0,1,3.608,1.169l.3.138,3.6-3.8.083-.162-.285-.137a22.859,22.859,0,0,0-8.608-2.461c-.7-.044-1.411-.066-2.121-.066a17.432,17.432,0,0,0-5.878.966,14.966,14.966,0,0,0-4.746,2.692,12.574,12.574,0,0,0-3.195,4.13,11.923,11.923,0,0,0-1.162,5.233,12.078,12.078,0,0,0,1.179,5.291,12.71,12.71,0,0,0,3.255,4.185,15.227,15.227,0,0,0,4.8,2.7,17.777,17.777,0,0,0,5.93.965,22.418,22.418,0,0,0,4.733-.515,25.881,25.881,0,0,0,4.718-1.516l1.043-.445v-12.083l-.009.007Z"/><path class="a" d="M-32.422,1252.255a8.675,8.675,0,0,0-2.924-2.24,18.655,18.655,0,0,0-3.376-1.213,25.291,25.291,0,0,1-2.833-.9,5.822,5.822,0,0,1-1.778-1.032c-.1-.089-.338-.3-.338-1.005a1.848,1.848,0,0,1,.2-.874,2.411,2.411,0,0,1,.638-.766,3.572,3.572,0,0,1,1.087-.588,5.765,5.765,0,0,1,3.152-.005,13.3,13.3,0,0,1,2.263.9l.371.18,3.489-3.766.15-.3-1.618-.79a14.787,14.787,0,0,0-6.535-1.59,10.175,10.175,0,0,0-3.393.563,9.217,9.217,0,0,0-2.8,1.567,7.839,7.839,0,0,0-1.961,2.42,6.686,6.686,0,0,0-.759,3.111,6.291,6.291,0,0,0,.776,3.18,6.786,6.786,0,0,0,1.939,2.14,10.284,10.284,0,0,0,2.424,1.278c.77.292,1.583.573,2.418.835.794.249,1.562.492,2.3.727a8.2,8.2,0,0,1,1.637.712,2.887,2.887,0,0,1,.884.777,1.457,1.457,0,0,1,.208.859,2.9,2.9,0,0,1-.291,1.4,2.4,2.4,0,0,1-.811.854,4.245,4.245,0,0,1-1.345.547,6.656,6.656,0,0,1-3.694-.126,13.612,13.612,0,0,1-2.591-1.32l-.427-.263-3.645,3.935,1.413.9a14.135,14.135,0,0,0,7.285,2.219,13.722,13.722,0,0,0,3.6-.456,9.453,9.453,0,0,0,3.146-1.48,7.6,7.6,0,0,0,2.246-2.638,7.959,7.959,0,0,0,.827-3.675A6.22,6.22,0,0,0-32.422,1252.255Z"/><path class="a" d="M9.189,1257.109v-9.448h6.832v1.114H10.44v2.9h5.227v1.108H10.44v3.216h5.8v1.115Z"/><path class="a" d="M21.5,1254.074l1.179-.1a2.609,2.609,0,0,0,.39,1.163,2.134,2.134,0,0,0,.951.735,3.6,3.6,0,0,0,1.45.28,3.49,3.49,0,0,0,1.263-.212,1.761,1.761,0,0,0,.816-.583,1.358,1.358,0,0,0,.267-.81,1.228,1.228,0,0,0-.258-.776,1.9,1.9,0,0,0-.85-.558,16.812,16.812,0,0,0-1.683-.461,8.488,8.488,0,0,1-1.823-.59,2.556,2.556,0,0,1-1.009-.879,2.149,2.149,0,0,1-.332-1.176,2.4,2.4,0,0,1,.406-1.337,2.511,2.511,0,0,1,1.186-.945,4.493,4.493,0,0,1,1.733-.322,4.736,4.736,0,0,1,1.854.338,2.67,2.67,0,0,1,1.234,1,2.864,2.864,0,0,1,.464,1.488l-1.2.091a1.93,1.93,0,0,0-.654-1.353,2.546,2.546,0,0,0-1.647-.458,2.635,2.635,0,0,0-1.653.416,1.246,1.246,0,0,0-.519,1,1.071,1.071,0,0,0,.367.837,4.956,4.956,0,0,0,1.886.674,12.451,12.451,0,0,1,2.091.6,2.868,2.868,0,0,1,1.219.964,2.353,2.353,0,0,1,.392,1.343,2.568,2.568,0,0,1-.431,1.421,2.843,2.843,0,0,1-1.242,1.038,4.333,4.333,0,0,1-1.82.37,5.438,5.438,0,0,1-2.149-.374,3.015,3.015,0,0,1-1.361-1.124A3.194,3.194,0,0,1,21.5,1254.074Z"/><path class="a" d="M34.691,1257.109v-9.448h3.564a8.627,8.627,0,0,1,1.437.09,2.854,2.854,0,0,1,1.167.441,2.319,2.319,0,0,1,.757.912,3.078,3.078,0,0,1-.479,3.33,3.684,3.684,0,0,1-2.772.835H35.941v3.84Zm1.25-4.956h2.443a2.59,2.59,0,0,0,1.721-.451,1.609,1.609,0,0,0,.509-1.269,1.707,1.707,0,0,0-.3-1.016,1.408,1.408,0,0,0-.789-.558,5.394,5.394,0,0,0-1.167-.084H35.941Z"/><path class="a" d="M45.437,1257.109l3.629-9.448h1.347l3.867,9.448H52.856l-1.1-2.861H47.8l-1.038,2.861Zm2.727-3.88h3.2l-.986-2.617q-.451-1.193-.67-1.959a11.9,11.9,0,0,1-.51,1.805Z"/><path class="a" d="M59.227,1257.109v-9.448H60.51l4.962,7.418v-7.418h1.2v9.448H65.388l-4.962-7.424v7.424Zm1.766-10.028a1.478,1.478,0,0,1,.367-1.07,1.221,1.221,0,0,1,.942-.4,2.664,2.664,0,0,1,1.088.348,1.454,1.454,0,0,0,.606.193.42.42,0,0,0,.316-.112.827.827,0,0,0,.155-.448h.838a1.6,1.6,0,0,1-.371,1.1,1.182,1.182,0,0,1-.892.368,2.426,2.426,0,0,1-1.071-.362,1.587,1.587,0,0,0-.631-.231.451.451,0,0,0-.355.154.636.636,0,0,0-.135.458Z"/><path class="a" d="M71.694,1257.109l3.629-9.448H76.67l3.867,9.448H79.113l-1.1-2.861H74.059l-1.037,2.861Zm2.727-3.88h3.2l-.986-2.617q-.452-1.193-.67-1.959a12.018,12.018,0,0,1-.51,1.805Z"/></g></svg>